<?xml version="1.0" encoding="UTF-8" standalone="no"?>
<!DOCTYPE svg PUBLIC "-//W3C//DTD SVG 1.1//EN" "http://www.w3.org/Graphics/SVG/1.1/DTD/svg11.dtd">
<svg width="1920px" height="1050px" version="1.1" xmlns="http://www.w3.org/2000/svg" xmlns:xlink="http://www.w3.org/1999/xlink" xml:space="preserve" xmlns:serif="http://www.serif.com/" style="fill-rule:evenodd;clip-rule:evenodd;stroke-linejoin:round;stroke-miterlimit:2;">
    <path id="icon-outline" d="M960,4.615C1218.93,1.685 1561.353,6.061 1736.791,14.555C1869.138,20.963 1894.297,45.297 1902.843,178.295C1908.129,260.552 1914.491,409.735 1914.491,525.454C1914.491,641.174 1908.129,790.357 1902.843,872.613C1894.297,1005.612 1869.138,1029.945 1736.791,1036.353C1561.353,1044.847 1218.93,1046.294 960,1046.294C701.07,1046.294 358.647,1044.847 183.209,1036.353C50.862,1029.945 25.703,1005.612 17.157,872.613C11.871,790.357 5.509,641.174 5.509,525.454C5.509,409.735 11.871,260.552 17.157,178.295C25.703,45.297 50.862,20.963 183.209,14.555C358.647,6.061 701.07,7.544 960,4.615ZM960.377,37.946C701.859,40.871 359.98,39.369 184.821,47.85C154.392,49.323 130.102,51.646 110.694,56.484C96.34,60.062 85.261,64.723 77.132,72.718C68.996,80.721 64.134,91.747 60.302,106.101C55.126,125.493 52.387,149.852 50.421,180.433C45.168,262.183 38.843,410.447 38.843,525.454C38.843,640.461 45.168,788.726 50.421,870.475C52.387,901.057 55.126,925.416 60.302,944.808C64.134,959.162 68.996,970.188 77.132,978.19C85.261,986.185 96.34,990.847 110.694,994.425C130.102,999.263 154.392,1001.585 184.821,1003.059C359.895,1011.535 701.607,1012.96 960,1012.96C1218.393,1012.96 1560.105,1011.535 1735.179,1003.059C1765.608,1001.585 1789.898,999.263 1809.306,994.425C1823.66,990.847 1834.739,986.185 1842.868,978.19C1851.004,970.188 1855.866,959.162 1859.698,944.808C1864.874,925.416 1867.613,901.057 1869.579,870.475C1874.832,788.726 1881.157,640.461 1881.157,525.454C1881.157,410.447 1874.832,262.183 1869.579,180.433C1867.613,149.852 1864.874,125.493 1859.698,106.101C1855.866,91.747 1851.004,80.721 1842.868,72.718C1834.739,64.723 1823.66,60.062 1809.306,56.484C1789.898,51.646 1765.608,49.323 1735.179,47.85C1560.191,39.377 1218.644,35.024 960.377,37.946Z" style="fill:rgb(181,181,181);"/>
</svg>
